PathFileType	4	(X/Y/Z)	\\147.46.242.158\로컬 디스크 (e)\MOCAP Data\Iguana Capture\iguana\Project 2\Capture day 7\Session 2\Take01.trc
DataRate	CameraRate	NumFrames	NumMarkers	Units	OrigDataRate	OrigDataStartFrame	OrigNumFrames
120.0	120.0	8	23	mm	120.0	53	1930
Frame#	Time	ana:head1			ana:head2			ana:bone1			ana:bone2			ana:bone3			ana:tail1			ana:tail2			ana:tail3			ana:tail4			ana:Rforefoot1			ana:Rforefoot2			ana:Rforefoot3			ana:Lforefoot1			ana:Lforefoot2			ana:Lforefoot3			ana:RhindLeg1			ana:RhindLeg2			ana:RhindLeg3			ana:RhindLeg4			ana:LhindLeg1			ana:LhindLeg2			ana:LhindLeg3			ana:LhindLeg4			
		X1	Y1	Z1	X2	Y2	Z2	X3	Y3	Z3	X4	Y4	Z4	X5	Y5	Z5	X6	Y6	Z6	X7	Y7	Z7	X8	Y8	Z8	X9	Y9	Z9	X10	Y10	Z10	X11	Y11	Z11	X12	Y12	Z12	X13	Y13	Z13	X14	Y14	Z14	X15	Y15	Z15	X16	Y16	Z16	X17	Y17	Z17	X18	Y18	Z18	X19	Y19	Z19	X20	Y20	Z20	X21	Y21	Z21	X22	Y22	Z22	X23	Y23	Z23	

952	7.925	-100.02121	-460.08658	50.81290	-90.43076	-462.29898	52.26021	-68.47681	-465.84424	44.10250	-39.97129	-468.62460	42.59814	-9.03109	-471.33606	40.35477	26.95652	-475.70874	31.34046	61.99508	-482.11557	20.97980	105.62514	-489.82663	10.23611	142.75938	-499.01004	6.69746	-75.37804	-451.64523	32.55384	-61.11757	-442.40616	21.84022	-69.71381	-445.79349	6.45953	-71.98013	-477.51642	28.63909	-63.25706	-487.45166	30.08838	-61.23497	-495.98160	14.04582	-3.18535	-466.33798	32.94592	11.32642	-451.28851	30.24638	35.69564	-447.35986	21.97489	26.66746	-442.58817	16.57592	-6.03117	-481.10400	29.59504	-12.84562	-495.85080	20.31243	2.48798	-496.31052	3.54911	-10.30256	-496.88425	3.00740	
953	7.933	-102.06781	-459.96722	51.65168	-92.05809	-461.76535	52.30261	-70.39871	-465.40915	43.55188	-41.96388	-468.93051	42.62000	-11.71185	-472.21378	42.26105	25.15522	-475.27841	31.17977	60.09398	-481.73291	21.28646	103.88970	-489.19836	10.06073	141.07945	-498.37769	6.54378	-76.16721	-451.31332	32.22599	-61.79695	-442.50101	22.32252	-69.71381	-445.79349	6.45953	-74.42334	-476.63937	29.50447	-66.55206	-487.09738	31.41442	-66.73813	-496.31305	15.53285	-6.77406	-462.79227	34.56675	9.04979	-449.84232	29.70818	32.36678	-447.67694	24.82758	24.10672	-442.07474	16.31711	-7.97534	-482.07648	30.42167	-13.40663	-496.59445	19.69668	2.54042	-496.19336	3.93209	-10.33878	-496.84854	2.96164	
954	7.942	-103.59779	-459.40881	51.31978	-94.12866	-461.74640	52.94132	-72.85336	-465.60806	45.08534	-43.69761	-469.29828	42.48418	-11.74009	-471.99411	39.72755	23.44965	-474.97412	31.49356	58.29578	-481.06906	21.29882	102.16725	-488.54739	10.00193	139.36113	-497.77554	6.50435	-74.32343	-451.32935	29.88728	-62.32537	-442.64908	22.46971	-69.71381	-445.79349	6.45953	-76.88680	-475.95514	30.32258	-69.79551	-486.55371	32.76024	-72.97839	-496.67700	17.49082	-9.49158	-463.07553	35.12467	5.83309	-448.71637	30.41097	29.48734	-446.87573	25.90501	21.31660	-441.46683	16.14697	-9.27291	-482.09088	30.09118	-13.75042	-498.51498	22.39191	2.51901	-496.06119	3.87087	-10.32138	-496.47281	3.46977	
955	7.950	-105.67796	-459.05655	51.41367	-95.76940	-461.19012	52.75670	-74.41971	-465.14301	44.79945	-45.66411	-469.89954	43.00405	-10.59220	-471.24310	36.48445	21.86353	-474.12094	31.15366	56.91857	-480.35672	21.08769	100.59573	-487.87030	10.19853	137.69147	-497.43521	6.60202	-78.75372	-450.68555	32.86213	-62.84740	-442.73312	22.79934	-70.03212	-445.79443	6.74778	-79.14579	-475.14560	30.48903	-72.92842	-486.07224	33.56785	-79.62355	-496.41440	19.93464	-9.57760	-464.58530	32.19550	1.94109	-447.62473	31.21796	25.41788	-447.38776	26.63466	18.28066	-440.75244	16.09849	-10.66595	-482.51459	30.25919	-13.86473	-497.40515	20.26262	2.46442	-496.05823	4.05819	-10.26860	-496.52136	3.50964	
956	7.958	-106.73186	-458.37726	51.72773	-97.19416	-460.69049	52.92626	-79.24547	-464.12195	48.17316	-47.04876	-469.88339	42.67046	-15.13486	-472.64990	39.67487	20.37237	-473.47870	30.56726	55.25605	-479.48911	20.87517	99.08913	-487.24313	9.52188	136.15318	-496.89828	6.30279	-78.92793	-450.39050	32.34713	-63.97748	-442.57715	23.44239	-69.84346	-445.79428	6.56366	-81.34366	-474.39261	31.04835	-75.64577	-485.36038	34.09160	-85.84247	-495.03616	22.25065	-10.76135	-463.97015	32.48430	-2.56296	-446.82391	32.38992	21.29362	-446.41617	24.88390	14.98247	-439.91953	16.20465	-11.54139	-481.93170	29.44577	-14.15519	-497.79437	20.14269	2.36487	-495.96844	4.08433	-10.25144	-496.54489	3.46374	
957	7.967	-107.97902	-457.72861	51.29894	-98.38818	-460.08679	52.75634	-80.53920	-463.52792	48.23018	-48.47358	-469.79297	42.65912	-17.70071	-472.17737	40.11754	18.81244	-472.76764	30.60442	53.73499	-478.65527	20.23351	97.48610	-486.67319	9.52510	134.40329	-496.39246	6.65634	-80.03139	-449.91006	33.05354	-64.41966	-442.65964	23.43612	-70.17142	-445.91904	6.50182	-83.27512	-473.70273	31.12816	-78.47714	-485.09076	34.17016	-91.21124	-492.91922	23.53973	-12.93423	-465.18552	31.47571	-6.88185	-446.02939	33.09182	17.38879	-445.66428	24.17513	11.40557	-438.95612	16.49843	-13.18867	-482.66022	30.20481	-14.40991	-498.04755	19.98768	2.27324	-495.80002	4.21756	-10.32154	-496.47302	3.47020	
958	7.975	-108.96677	-457.06604	51.53551	-99.71140	-459.57513	52.78156	-82.10588	-463.26486	48.36184	-49.90654	-470.07697	43.04996	-19.80950	-472.66263	40.14106	17.26993	-472.04068	30.20183	52.29199	-477.74042	20.21641	95.92151	-486.05783	9.28460	132.93605	-495.86316	6.60763	-81.08553	-449.70920	32.79764	-65.04435	-442.70764	23.72520	-70.25916	-446.00226	6.53136	-85.22424	-472.92804	31.19339	-81.65566	-484.93646	34.09904	-96.20927	-490.51050	24.85561	-14.92411	-464.22165	32.20760	-11.25012	-445.60187	33.34002	12.05399	-445.26294	22.76478	7.53352	-437.85016	17.01281	-13.91038	-481.90082	28.94146	-14.66635	-497.98547	19.95956	2.29537	-495.51569	4.48327	-10.32817	-496.45758	3.49622	
959	7.983	-110.33328	-456.47192	51.45266	-100.84719	-458.84378	52.92534	-82.89890	-462.67838	48.13556	-51.29990	-469.94174	42.89714	-21.47184	-471.95648	40.80558	15.81055	-471.09714	29.62846	50.69241	-476.69196	19.58182	94.58934	-485.33463	9.18836	131.52405	-495.34799	6.81051	-82.04668	-449.19437	33.25903	-65.45518	-442.72504	23.77040	-70.14487	-445.99377	6.64652	-87.13712	-472.26453	31.26003	-84.69826	-484.64395	33.63843	-100.63647	-487.71060	25.46515	-13.08939	-464.42642	27.64243	-15.75546	-445.51706	34.09926	6.06060	-445.00241	21.30636	3.34988	-436.58969	17.78078	-15.47856	-482.46509	29.93257	-14.97417	-497.94885	19.94466	-0.58897	-498.59009	7.16010	-10.37496	-496.46060	3.53359	
